<?xml version="1.0" encoding="UTF-8"?>
<svg id="Layer_2" data-name="Layer 2" xmlns="http://www.w3.org/2000/svg" xmlns:xlink="http://www.w3.org/1999/xlink" viewBox="0 0 120 120.25">
  <defs>
    <style>
      .cls-1 {
        fill: url(#linear-gradient);
      }

      .cls-1, .cls-2, .cls-3 {
        stroke-width: 0px;
      }

      .cls-2 {
        fill: url(#linear-gradient-2);
      }

      .cls-3 {
        fill: url(#linear-gradient-3);
      }
    </style>
    <linearGradient id="linear-gradient" x1="38.28" y1="52.79" x2="38.28" y2="0" gradientUnits="userSpaceOnUse">
      <stop offset="0" stop-color="#fff" stop-opacity=".7"/>
      <stop offset="1" stop-color="#fff" stop-opacity=".4"/>
    </linearGradient>
    <linearGradient id="linear-gradient-2" x1="97.17" y1="73.75" x2="97.17" y2="47.57" xlink:href="#linear-gradient"/>
    <linearGradient id="linear-gradient-3" x1="49.54" y1="120.25" x2="49.54" y2="120.25" gradientUnits="userSpaceOnUse">
      <stop offset="0" stop-color="#fff"/>
      <stop offset="1" stop-color="#fff" stop-opacity=".5"/>
    </linearGradient>
  </defs>
  <g id="Layer_2-2" data-name="Layer 2">
    <g>
      <path class="cls-1" d="M70,35.69c2.24-3.58,3.54-7.82,3.54-12.36,0-12.88-10.45-23.33-23.33-23.33s-23.01,10.13-23.32,22.74c-1.65-.6-3.42-.92-5.27-.92-8.55,0-15.49,6.93-15.49,15.49,0,1.11.12,2.19.34,3.23-.11,0-.23,0-.34,0-3.39,0-6.13,2.75-6.13,6.13s2.75,6.13,6.13,6.13h61.75c4.8,0,8.68-3.89,8.68-8.68,0-4.06-2.79-7.47-6.56-8.42Z"/>
      <path class="cls-2" d="M112.38,58.52c-1.82,0-3.49.64-4.8,1.7-.88-1.41-2.44-2.35-4.23-2.35-1.11,0-2.13.37-2.96.98-.88-6.37-6.35-11.28-12.96-11.28-7.23,0-13.09,5.86-13.09,13.09s5.86,13.09,13.09,13.09h24.96c4.21,0,7.62-3.41,7.62-7.62s-3.41-7.62-7.62-7.62Z"/>
    </g>
    <line class="cls-3" x1="18.88" y1="120.25" x2="80.2" y2="120.25"/>
  </g>
</svg>