<?xml version="1.0" encoding="UTF-8"?>
<svg id="Layer_2" data-name="Layer 2" xmlns="http://www.w3.org/2000/svg" xmlns:xlink="http://www.w3.org/1999/xlink" viewBox="0 0 150 71.23">
  <defs>
    <style>
      .cls-1 {
        fill: url(#linear-gradient);
        stroke-width: 0px;
      }
    </style>
    <linearGradient id="linear-gradient" x1="75" y1="71.23" x2="75" y2="0" gradientUnits="userSpaceOnUse">
      <stop offset="0" stop-color="#fff"/>
      <stop offset="1" stop-color="#fff" stop-opacity=".5"/>
    </linearGradient>
  </defs>
  <g id="Layer_2-2" data-name="Layer 2">
    <path class="cls-1" d="M150,71.23c-1.66-6.71-7.38-11.81-14.41-12.53.25-1.28.39-2.61.39-3.96,0-11.32-9.18-20.5-20.5-20.5-4.26,0-8.21,1.3-11.48,3.52-1.27-3.76-4.82-6.48-9.01-6.48-2.53,0-4.82.99-6.52,2.6C86.58,14.85,70.54,0,51.03,0,30.26,0,13.42,16.84,13.42,37.61c0,3.78.56,7.43,1.6,10.87-.52-.06-1.06-.1-1.6-.1-7.41,0-13.42,6.01-13.42,13.42,0,3.67,1.48,7,3.86,9.42h146.14Z"/>
  </g>
</svg>