<?xml version="1.0" encoding="UTF-8"?>
<svg id="Layer_2" data-name="Layer 2" xmlns="http://www.w3.org/2000/svg" viewBox="0 0 151.14 72.23">
  <defs>
    <style>
      .cls-1 {
        fill: #fff;
        stroke: #fff;
        stroke-miterlimit: 10;
      }
    </style>
  </defs>
  <g id="Layer_2-2" data-name="Layer 2">
    <path class="cls-1" d="M150.5,71.73c-1.66-6.71-7.38-11.81-14.41-12.53.25-1.28.39-2.61.39-3.96,0-11.32-9.18-20.5-20.5-20.5-4.26,0-8.21,1.3-11.48,3.52-1.27-3.76-4.82-6.48-9.01-6.48-2.53,0-4.82.99-6.52,2.6C87.08,15.35,71.04.5,51.53.5,30.76.5,13.92,17.34,13.92,38.11c0,3.78.56,7.43,1.6,10.87-.52-.06-1.06-.1-1.6-.1-7.41,0-13.42,6.01-13.42,13.42,0,3.67,1.48,7,3.86,9.42h146.14Z"/>
  </g>
</svg>