<?xml version="1.0" encoding="UTF-8"?>
<svg id="Layer_2" data-name="Layer 2" xmlns="http://www.w3.org/2000/svg" xmlns:xlink="http://www.w3.org/1999/xlink" viewBox="0 0 892.32 839.51">
  <defs>
    <style>
      .cls-1 {
        fill: url(#radial-gradient);
        stroke-width: 0px;
      }
    </style>
    <radialGradient id="radial-gradient" cx="-874.25" cy="199.03" fx="-874.25" fy="199.03" r="55.52" gradientTransform="translate(6955.76 2920.12) rotate(33.35) scale(7.82 7.41)" gradientUnits="userSpaceOnUse">
      <stop offset="0" stop-color="#fff" stop-opacity=".6"/>
      <stop offset="1" stop-color="#fff" stop-opacity=".1"/>
    </radialGradient>
  </defs>
  <g id="Layer_2-2" data-name="Layer 2">
    <path class="cls-1" d="M699.56,659.77c30.75,8.88,64.17-1.7,81.84-28.54,19.87-30.19,12.94-70.5-14.55-95.16,5.9-2.7,11.15-6.84,14.92-12.57,5.44-8.26,6.87-18.02,4.92-27.23,65.7-4.35,112.55-59.72,104.79-124.29-7.43-61.88-62.32-109.72-124.83-110.87,3.75-13.45-1.66-28.66-14.55-37.14-8.28-5.45-17.92-6.93-26.65-5.02,1.14-1.54,2.34-3,3.4-4.62,33.65-51.13,17.18-121.37-36.79-156.89-52.82-34.76-121.88-23.29-156.35,25.13-2.37-7.21-7.06-13.82-14.04-18.42-10.73-7.07-23.71-7.47-34.05-2.39-12.38-19.76-36.03-34.78-64.09-38.05-12.82-1.49-25.08-.33-36.06,2.91-51.41-37.23-133.71-36.06-202.07,7.57-73.88,47.14-106.2,127.76-80.31,189.96-34.87.57-68.17,16.91-88.07,47.15C-15.81,321.23.27,389.81,52.96,424.49c.32.21.66.38.99.58-8.39,20.67-4.1,44.68,10.65,62.35-3.18,3.55-6.21,7.27-8.9,11.36-31.08,47.22-15.87,112.1,33.98,144.91,32.09,21.12,70.66,23.71,102.39,10.35,1.72,10.01,7.47,19.51,16.89,25.71,8.92,5.87,19.28,7.63,28.73,5.78-7.11,61.76,37.27,124.92,106.48,146.57,72.7,22.74,146.03-8.69,168.4-70.37,11.04-.01,21.57-4.95,28.27-14.08,5.18,5.39,10.97,10.37,17.51,14.67,44.84,29.51,103.85,19,131.8-23.48,15.79-23.98,18.28-53.03,9.4-79.08Z"/>
  </g>
</svg>