<?xml version="1.0" encoding="UTF-8"?>
<svg id="Layer_2" data-name="Layer 2" xmlns="http://www.w3.org/2000/svg" viewBox="0 0 163.74 64.21">
  <defs>
    <style>
      .cls-1 {
        fill: #fff;
        stroke-width: 0px;
      }
    </style>
  </defs>
  <g id="Layer_2-2" data-name="Layer 2">
    <path class="cls-1" d="M115.86,42.88c-4.27-4.27-11.2-4.27-15.47,0,4.27-4.27,4.27-11.2,0-15.47-4.27-4.27-11.2-4.27-15.47,0-9.41,9.41-4.67,35.6-4.67,35.6,0,0,26.19,4.75,35.6-4.67,4.27-4.27,4.27-11.2,0-15.47Z"/>
    <path class="cls-1" d="M9.34,45.81c-2.14,2.14-2.14,5.6,0,7.73-2.14-2.14-5.6-2.14-7.73,0s-2.14,5.6,0,7.73c4.71,4.71,17.8,2.33,17.8,2.33,0,0,2.37-13.09-2.33-17.8-2.14-2.14-5.6-2.14-7.73,0Z"/>
    <path class="cls-1" d="M37.82,64.01c7.59,0,13.75-6.16,13.75-13.75,0,7.59,6.16,13.75,13.75,13.75,7.59,0,13.75-6.16,13.75-13.75,0-16.73-27.5-35.8-27.5-35.8,0,0-27.5,19.06-27.5,35.8,0,7.59,6.16,13.75,13.75,13.75Z"/>
    <path class="cls-1" d="M73.18,2.14c-3.19,2.99-3.35,8-.37,11.19-2.99-3.19-8-3.35-11.19-.37-3.19,2.99-3.35,8-.37,11.19,6.59,7.03,25.65,4.22,25.65,4.22,0,0,4.05-18.84-2.54-25.87-2.99-3.19-8-3.35-11.19-.37Z"/>
    <path class="cls-1" d="M163.2,57.14c-1.1-1.91-3.55-2.57-5.46-1.46,1.91-1.1,2.57-3.55,1.46-5.46s-3.55-2.57-5.46-1.46c-4.21,2.43-5.01,12.12-5.01,12.12,0,0,8.79,4.15,13,1.72,1.91-1.1,2.57-3.55,1.46-5.46Z"/>
  </g>
</svg>