<?xml version="1.0" encoding="UTF-8"?>
<svg id="Layer_2" data-name="Layer 2" xmlns="http://www.w3.org/2000/svg" xmlns:xlink="http://www.w3.org/1999/xlink" viewBox="0 0 163.74 64.21">
  <defs>
    <style>
      .cls-1 {
        fill: url(#linear-gradient);
      }

      .cls-1, .cls-2, .cls-3 {
        stroke-width: 0px;
      }

      .cls-2 {
        fill: url(#linear-gradient-2);
      }

      .cls-3 {
        fill: url(#linear-gradient-3);
      }
    </style>
    <linearGradient id="linear-gradient" x1="10" y1="64.21" x2="10" y2="44.21" gradientUnits="userSpaceOnUse">
      <stop offset="0" stop-color="#fff"/>
      <stop offset="1" stop-color="#fff" stop-opacity=".5"/>
    </linearGradient>
    <linearGradient id="linear-gradient-2" x1="71.57" y1="64.21" x2="71.57" y2="0" xlink:href="#linear-gradient"/>
    <linearGradient id="linear-gradient-3" x1="156.24" y1="63.36" x2="156.24" y2="48.22" xlink:href="#linear-gradient"/>
  </defs>
  <g id="Layer_2-2" data-name="Layer 2">
    <path class="cls-1" d="M9.34,45.81c-2.14,2.14-2.14,5.6,0,7.73-2.14-2.14-5.6-2.14-7.73,0s-2.14,5.6,0,7.73c4.71,4.71,17.8,2.33,17.8,2.33,0,0,2.37-13.09-2.33-17.8-2.14-2.14-5.6-2.14-7.73,0Z"/>
    <g>
      <path class="cls-2" d="M100.39,42.88c4.27-4.27,4.27-11.2,0-15.47-3.52-3.52-8.84-4.13-12.99-1.85.84-5.52,1.99-17.7-3.03-23.06-2.99-3.19-8-3.35-11.19-.37-3.19,2.99-3.35,8-.37,11.19-2.99-3.19-8-3.35-11.19-.37-2.15,2.01-2.92,4.94-2.28,7.61-4.39-3.77-7.78-6.11-7.78-6.11,0,0-27.5,19.06-27.5,35.8,0,7.59,6.16,13.75,13.75,13.75,7.59,0,13.75-6.16,13.75-13.75,0,7.59,6.16,13.75,13.75,13.75s13.75-6.16,13.75-13.75-6.1-16.27-12.55-22.95c5.66,1.96,13.15,1.73,17.3,1.4-7.9,10.3-3.55,34.31-3.55,34.31,0,0,26.19,4.75,35.6-4.67,4.27-4.27,4.27-11.2,0-15.47-4.27-4.27-11.2-4.27-15.47,0Z"/>
      <path class="cls-3" d="M163.2,57.14c-1.1-1.91-3.55-2.57-5.46-1.46,1.91-1.1,2.57-3.55,1.46-5.46-1.1-1.91-3.55-2.57-5.46-1.46-4.21,2.43-5.01,12.12-5.01,12.12,0,0,8.79,4.15,13,1.72,1.91-1.1,2.57-3.55,1.46-5.46Z"/>
    </g>
  </g>
</svg>