<?xml version="1.0" encoding="UTF-8"?>
<svg id="Layer_2" data-name="Layer 2" xmlns="http://www.w3.org/2000/svg" xmlns:xlink="http://www.w3.org/1999/xlink" version="1.1" viewBox="0 0 894.6 804.4">
  <defs>
    <style>
      .cls-1 {
        fill: url(#linear-gradient);
      }

      .cls-1, .cls-2 {
        stroke-width: 0px;
      }

      .cls-2 {
        fill: #fff;
      }
    </style>
    <linearGradient id="linear-gradient" x1="447.3" y1="100.4" x2="447.3" y2="62.5" gradientTransform="translate(0 806) scale(1 -1)" gradientUnits="userSpaceOnUse">
      <stop offset="0" stop-color="#fff"/>
      <stop offset="1" stop-color="#fff" stop-opacity=".9"/>
    </linearGradient>
  </defs>
  <g>
    <path class="cls-2" d="M350.4,797.2l-3.9-1,.5-1.8,3.7,1.5-.3-4.3h1.8l-.3,4.4,3.7-1.5.5,1.8-3.9,1,2.6,3.3-1.5,1.1-2.2-3.7-2.2,3.6-1.5-1.1,2.7-3.3h.3Z"/>
    <path class="cls-2" d="M376.6,802.8c.3,0,.7,0,1-.2s.6-.3.9-.5c.2-.2.5-.4.6-.7s.2-.5.2-.9h1.8c0,.5-.1,1-.4,1.4-.2.5-.6.8-1,1.2-.4.3-.9.6-1.4.8s-1.1.3-1.7.3-1.6-.2-2.2-.5-1.1-.7-1.6-1.2c-.4-.5-.7-1.1-1-1.8-.2-.7-.3-1.4-.3-2.1v-.4c0-.7.1-1.4.3-2.1.2-.7.5-1.3,1-1.8s1-.9,1.6-1.2,1.4-.5,2.2-.5,1.3,0,1.8.3,1,.5,1.4.8c.4.4.7.8.9,1.3s.3,1,.3,1.6h-1.8c0-.3,0-.7-.2-1s-.3-.6-.6-.8c-.2-.2-.5-.4-.9-.5s-.7-.2-1.1-.2c-.6,0-1.1,0-1.5.3s-.7.5-1,.9-.4.8-.5,1.3-.2,1-.2,1.4v.4c0,.5,0,1,.2,1.4.1.5.3.9.5,1.3s.6.7,1,.9.9.3,1.5.3h0l.2.5Z"/>
    <path class="cls-2" d="M384.8,788.4h5.7v14.1h3.6v1.6h-9.3v-1.6h3.8v-12.5h-3.8v-1.7h0Z"/>
    <path class="cls-2" d="M397.4,793.1h5.7v9.5h3.6v1.6h-9.3v-1.6h3.8v-7.8h-3.8v-1.7h0ZM400.9,790.2c0-.3,0-.6.3-.8.2-.2.5-.3.9-.3s.7,0,.9.3c.2.2.3.5.3.8s-.1.6-.3.8-.5.3-.9.3-.7,0-.9-.3c-.2-.2-.3-.5-.3-.8Z"/>
    <path class="cls-2" d="M414.4,802.8c.3,0,.7,0,1-.2s.6-.3.9-.5c.2-.2.5-.4.6-.7s.2-.5.2-.9h1.8c0,.5-.1,1-.4,1.4-.2.5-.6.8-1,1.2-.4.3-.9.6-1.4.8s-1.1.3-1.7.3-1.6-.2-2.2-.5-1.1-.7-1.6-1.2c-.4-.5-.7-1.1-1-1.8-.2-.7-.3-1.4-.3-2.1v-.4c0-.7.1-1.4.3-2.1.2-.7.5-1.3,1-1.8s1-.9,1.6-1.2,1.4-.5,2.2-.5,1.3,0,1.8.3,1,.5,1.4.8c.4.4.7.8.9,1.3s.3,1,.3,1.6h-1.8c0-.3,0-.7-.2-1s-.3-.6-.6-.8c-.2-.2-.5-.4-.9-.5s-.7-.2-1.1-.2c-.6,0-1.1,0-1.5.3s-.7.5-1,.9-.4.8-.5,1.3-.2,1-.2,1.4v.4c0,.5,0,1,.2,1.4.1.5.3.9.5,1.3s.6.7,1,.9.9.3,1.5.3h0l.2.5Z"/>
    <path class="cls-2" d="M425.6,799l-1.4,1.3v3.8h-1.9v-15.8h1.9v9.6l1.2-1.3,3.6-3.7h2.3l-4.5,4.6,5.2,6.5h-2.4l-4.1-5.2h0v.2Z"/>
    <path class="cls-2" d="M446.8,800.3c0-.5,0-.9.2-1.3.1-.4.3-.8.6-1.1.2-.3.5-.7.9-1,.3-.3.7-.6,1.1-.9-.5-.6-.8-1.2-1.1-1.8s-.4-1.1-.4-1.7,0-1.1.3-1.5c.2-.5.4-.8.7-1.1.3-.3.7-.5,1.2-.7s1-.2,1.5-.2.9,0,1.3.3.7.4,1,.7.5.6.6,1,.2.8.2,1.2,0,.7-.2,1c-.1.3-.2.6-.4.8s-.4.5-.7.7-.5.5-.8.7l-1,.8,3.1,4.1c.2-.4.4-.9.6-1.4.1-.5.2-1.1.2-1.7h1.7c0,.9-.1,1.7-.4,2.4-.2.8-.6,1.4-1.1,2l1.9,2.4h-2.3l-.9-1.1c-.5.4-1.1.8-1.7,1s-1.2.3-1.9.3-1.3,0-1.8-.3-1-.5-1.4-.8-.7-.8-.9-1.3c-.2-.5-.3-1-.3-1.6h.2ZM451.2,802.8c.5,0,1,0,1.4-.3s.9-.4,1.3-.8l-3.3-4.4-.3.2c-.3.3-.6.5-.8.8s-.4.5-.5.8c-.1.2-.2.5-.2.7v.5c0,.3,0,.7.2,1s.3.6.5.8.5.4.8.5.7.2,1.1.2h-.2ZM450,792.6c0,.4,0,.8.3,1.2.2.4.4.8.7,1.3l1.2-1c.2,0,.4-.3.5-.5s.2-.3.3-.5c0-.2.1-.3.2-.5v-.5c0-.2,0-.4-.1-.6,0-.2-.2-.4-.3-.5-.1-.2-.3-.3-.5-.4-.2,0-.4,0-.6,0s-.5,0-.8.2-.4.3-.5.4c-.1.2-.3.4-.3.6s-.1.5-.1.8h0Z"/>
    <path class="cls-2" d="M474.6,794.7c.4-.6.9-1,1.5-1.4.6-.3,1.2-.5,2-.5s1.1,0,1.6.2.9.4,1.2.8.6.8.8,1.3c.2.5.3,1.2.3,1.9v7h-1.9v-7c0-.9-.2-1.6-.6-2s-1-.7-1.9-.7-1.2.2-1.7.5-.9.7-1.2,1.2v8.1h-1.9v-15.8h1.9v6.3h0Z"/>
    <path class="cls-2" d="M484.7,798.5c0-.8.1-1.5.4-2.2s.6-1.3,1-1.8,1-.9,1.6-1.2,1.3-.4,2.1-.4,1.5.2,2.1.4c.6.3,1.2.7,1.6,1.2s.8,1.1,1,1.8.4,1.4.4,2.2v.2c0,.8-.1,1.5-.4,2.2s-.6,1.3-1,1.8-1,.9-1.6,1.2-1.3.4-2.1.4-1.5,0-2.1-.4c-.6-.3-1.2-.7-1.6-1.2s-.8-1.1-1-1.8-.4-1.4-.4-2.2v-.2ZM486.6,798.7c0,.5,0,1.1.2,1.6.1.5.3.9.6,1.3s.6.7,1,.9.9.3,1.4.3,1,0,1.4-.3.7-.5,1-.9.5-.8.6-1.3.2-1,.2-1.6v-.2c0-.5,0-1.1-.2-1.5-.1-.5-.3-.9-.6-1.3s-.6-.7-1-.9-.9-.3-1.4-.3-1,0-1.4.3-.7.5-1,.9-.5.8-.6,1.3-.2,1-.2,1.5v.2h0Z"/>
    <path class="cls-2" d="M498.2,788.4h5.7v14.1h3.6v1.6h-9.3v-1.6h3.8v-12.5h-3.8v-1.7h0Z"/>
    <path class="cls-2" d="M510.1,798.5c0-.8.1-1.6.3-2.3s.5-1.3.9-1.8.8-.9,1.4-1.2,1.2-.4,1.8-.4,1.2,0,1.7.3.9.5,1.3,1v-5.8h1.9v15.8h-1.7v-1.2c-.5.5-.9.8-1.4,1s-1.1.3-1.8.3-1.3,0-1.8-.4-1-.7-1.4-1.2-.7-1.1-.9-1.8c-.2-.7-.3-1.4-.3-2.2v-.2h0ZM512,798.7c0,.5,0,1,.2,1.5,0,.5.3.9.5,1.3.2.4.5.7.9.9s.8.3,1.3.3.6,0,.9,0,.5-.2.7-.3.4-.3.6-.5c.2-.2.3-.4.4-.7v-5.2c-.2-.5-.6-.8-1-1.1s-.9-.4-1.6-.4-1,0-1.4.3-.7.5-.9.9-.4.8-.5,1.3-.2,1-.2,1.5v.2h0Z"/>
    <path class="cls-2" d="M539.4,797.2l-3.9-1,.5-1.8,3.7,1.5-.3-4.3h1.8l-.3,4.4,3.7-1.5.5,1.8-3.9,1,2.6,3.3-1.5,1.1-2.2-3.7-2.2,3.6-1.5-1.1,2.7-3.3h.3Z"/>
  </g>
  <path class="cls-1" d="M447.8,705.6H0c155.2,37.9,289.6,37.9,447.3,37.9h0c157.6,0,292.1,0,447.3-37.9h-446.8Z"/>
</svg>