<?xml version="1.0" encoding="UTF-8"?>
<svg id="Layer_2" data-name="Layer 2" xmlns="http://www.w3.org/2000/svg" viewBox="0 0 900 98.8">
  <defs>
    <style>
      .cls-1 {
        fill: #fff;
        stroke-width: 0px;
      }
    </style>
  </defs>
  <g id="Layer_2-2" data-name="Layer 2">
    <path class="cls-1" d="M450,53.97C292.36,53.97,140.94,34.97,0,0h900c-140.94,34.97-292.36,53.97-450,53.97Z"/>
    <g>
      <path class="cls-1" d="M354.43,91.59l-3.87-.98.55-1.79,3.74,1.55-.26-4.32h1.83l-.3,4.38,3.72-1.54.55,1.83-3.92.96,2.62,3.32-1.5,1.13-2.19-3.72-2.17,3.63-1.5-1.09,2.68-3.35Z"/>
      <path class="cls-1" d="M380.64,97.26c.34,0,.67-.05,1-.16.33-.11.61-.26.87-.46.25-.2.46-.42.61-.69.15-.26.23-.55.24-.86h1.79c0,.49-.14.96-.38,1.41-.25.45-.58.84-1,1.18-.42.34-.9.61-1.44.81-.54.2-1.1.3-1.69.3-.84,0-1.58-.15-2.21-.45s-1.15-.71-1.57-1.21c-.42-.51-.74-1.1-.95-1.76-.21-.67-.32-1.37-.32-2.11v-.43c0-.73.11-1.43.32-2.1.21-.67.53-1.26.95-1.77.42-.51.95-.91,1.57-1.21s1.36-.45,2.21-.45c.66,0,1.26.1,1.81.31.55.21,1.03.49,1.42.85.4.36.71.78.94,1.28s.34,1.02.34,1.58h-1.79c0-.33-.08-.65-.22-.95-.14-.3-.33-.56-.57-.79-.24-.22-.53-.4-.86-.53-.33-.13-.69-.19-1.07-.19-.59,0-1.08.12-1.48.35-.4.24-.72.54-.97.92-.25.38-.42.8-.53,1.28-.11.47-.16.95-.16,1.42v.43c0,.49.05.97.16,1.44.11.48.28.9.52,1.28.24.38.56.69.96.92.4.24.9.35,1.49.35Z"/>
      <path class="cls-1" d="M388.81,82.85h5.67v14.11h3.62v1.64h-9.29v-1.64h3.77v-12.46h-3.77v-1.65Z"/>
      <path class="cls-1" d="M401.41,87.5h5.67v9.45h3.62v1.64h-9.29v-1.64h3.77v-7.8h-3.77v-1.65ZM404.94,84.59c0-.31.09-.58.28-.79.19-.21.47-.32.86-.32s.66.11.85.32c.19.22.29.48.29.79s-.1.56-.29.77-.47.31-.85.31-.67-.1-.86-.31c-.19-.21-.28-.46-.28-.77Z"/>
      <path class="cls-1" d="M418.44,97.26c.34,0,.67-.05,1-.16.33-.11.61-.26.87-.46.25-.2.46-.42.61-.69.15-.26.23-.55.24-.86h1.79c0,.49-.14.96-.38,1.41-.25.45-.58.84-1,1.18-.42.34-.9.61-1.44.81-.54.2-1.1.3-1.69.3-.84,0-1.58-.15-2.21-.45s-1.15-.71-1.57-1.21c-.42-.51-.74-1.1-.95-1.76-.21-.67-.32-1.37-.32-2.11v-.43c0-.73.11-1.43.32-2.1.21-.67.53-1.26.95-1.77.42-.51.95-.91,1.57-1.21s1.36-.45,2.21-.45c.66,0,1.26.1,1.81.31.55.21,1.03.49,1.42.85.4.36.71.78.94,1.28s.34,1.02.34,1.58h-1.79c0-.33-.08-.65-.22-.95-.14-.3-.33-.56-.57-.79-.24-.22-.53-.4-.86-.53-.33-.13-.69-.19-1.07-.19-.59,0-1.08.12-1.48.35-.4.24-.72.54-.97.92-.25.38-.42.8-.53,1.28-.11.47-.16.95-.16,1.42v.43c0,.49.05.97.16,1.44.11.48.28.9.52,1.28.24.38.56.69.96.92.4.24.9.35,1.49.35Z"/>
      <path class="cls-1" d="M429.64,93.42l-1.39,1.34v3.83h-1.91v-15.75h1.91v9.64l1.24-1.33,3.64-3.65h2.31l-4.49,4.62,5.18,6.47h-2.41l-4.07-5.18Z"/>
      <path class="cls-1" d="M450.84,94.77c0-.46.07-.88.21-1.27.14-.39.33-.75.57-1.09.25-.34.54-.66.88-.96.34-.3.72-.6,1.14-.9-.46-.62-.82-1.21-1.09-1.76-.27-.55-.41-1.13-.41-1.73s.09-1.1.26-1.54c.17-.45.42-.82.74-1.13.32-.3.71-.54,1.16-.69s.96-.24,1.52-.24c.49,0,.93.08,1.32.26s.73.4,1.01.69c.28.29.49.63.64,1.01.15.38.22.79.22,1.21,0,.36-.05.69-.16.99-.11.3-.25.58-.44.84-.19.26-.41.51-.67.74s-.54.46-.84.69l-.96.82,3.15,4.13c.24-.44.43-.92.56-1.44.14-.52.21-1.08.21-1.68h1.71c0,.88-.12,1.69-.38,2.44-.25.75-.61,1.42-1.09,2.03l1.86,2.43h-2.27l-.85-1.13c-.51.43-1.06.76-1.67.99-.61.23-1.25.34-1.92.34s-1.29-.1-1.84-.3c-.55-.2-1.01-.48-1.39-.83s-.68-.78-.89-1.28c-.21-.5-.31-1.04-.31-1.62ZM455.27,97.26c.48,0,.95-.09,1.4-.27s.87-.43,1.26-.76l-3.31-4.42-.29.25c-.34.28-.62.55-.83.82-.21.27-.38.52-.49.75-.11.24-.19.45-.23.65-.04.19-.06.36-.06.49,0,.35.05.67.16.97s.27.56.48.79c.21.22.47.4.79.53s.68.19,1.1.19ZM454.05,87.03c0,.38.08.77.26,1.17.17.4.41.82.72,1.27l1.2-.95c.21-.14.39-.29.52-.45.14-.16.24-.32.32-.48.08-.16.13-.32.16-.49.03-.16.05-.33.05-.48,0-.21-.03-.41-.1-.6-.06-.2-.16-.37-.29-.51-.13-.15-.28-.27-.46-.36-.18-.09-.38-.14-.61-.14-.29,0-.55.05-.77.16-.22.11-.41.26-.55.44-.15.18-.26.4-.33.64-.08.24-.11.5-.11.77Z"/>
      <path class="cls-1" d="M478.62,89.15c.4-.58.88-1.03,1.47-1.36.58-.32,1.23-.49,1.96-.5.58,0,1.11.08,1.58.25.47.17.88.43,1.21.79s.59.8.77,1.35c.18.54.27,1.19.27,1.93v6.98h-1.9v-7c0-.91-.22-1.58-.65-2.03-.43-.44-1.05-.66-1.86-.66-.61,0-1.16.15-1.66.45-.5.3-.9.69-1.2,1.18v8.06h-1.9v-15.75h1.9v6.31Z"/>
      <path class="cls-1" d="M488.8,92.95c0-.8.12-1.54.35-2.23.23-.69.57-1.28,1-1.79.43-.5.96-.9,1.58-1.19.62-.29,1.32-.44,2.1-.44s1.49.15,2.12.44c.62.29,1.16.69,1.59,1.19.43.51.77,1.1,1,1.79.23.69.35,1.43.35,2.23v.23c0,.8-.12,1.54-.35,2.22s-.57,1.28-1,1.78c-.43.51-.96.9-1.58,1.19s-1.32.43-2.1.43-1.49-.14-2.12-.43c-.62-.29-1.16-.68-1.59-1.19-.43-.51-.77-1.1-1-1.78s-.35-1.43-.35-2.22v-.23ZM490.69,93.17c0,.55.06,1.07.19,1.56.13.5.33.93.59,1.31.26.38.59.67.99.89s.86.33,1.38.33.98-.11,1.37-.33c.39-.22.72-.52.98-.89.26-.38.46-.81.59-1.31.13-.5.19-1.02.19-1.56v-.23c0-.54-.07-1.06-.2-1.55-.13-.5-.33-.93-.59-1.31-.26-.38-.59-.67-.98-.9-.39-.22-.85-.33-1.38-.33s-.98.11-1.37.33c-.39.22-.72.52-.98.9-.26.38-.46.81-.59,1.31-.13.5-.19,1.01-.19,1.55v.23Z"/>
      <path class="cls-1" d="M502.23,82.85h5.67v14.11h3.62v1.64h-9.29v-1.64h3.77v-12.46h-3.77v-1.65Z"/>
      <path class="cls-1" d="M514.18,92.96c0-.83.1-1.59.31-2.28.21-.69.51-1.29.89-1.79.39-.5.85-.89,1.4-1.17s1.16-.42,1.84-.42,1.24.11,1.74.33c.5.22.92.55,1.29.97v-5.75h1.9v15.75h-1.74l-.08-1.17c-.37.45-.81.79-1.32,1.03-.51.23-1.11.35-1.79.35s-1.28-.14-1.82-.43c-.54-.29-1.01-.68-1.39-1.19s-.68-1.1-.89-1.79c-.21-.69-.32-1.43-.32-2.22v-.22ZM516.07,93.17c0,.54.06,1.05.17,1.54.12.49.3.91.54,1.28.24.37.55.66.93.88.38.21.83.32,1.35.32.32,0,.61-.04.87-.11s.5-.18.71-.32c.21-.14.4-.31.56-.5.16-.2.31-.41.43-.65v-5.15c-.25-.45-.58-.82-1-1.11-.42-.29-.94-.44-1.56-.44-.53,0-.99.11-1.37.33-.38.22-.69.51-.93.89-.24.37-.42.8-.54,1.29-.12.49-.17,1-.17,1.54v.22Z"/>
      <path class="cls-1" d="M543.46,91.59l-3.87-.98.55-1.79,3.74,1.55-.26-4.32h1.83l-.3,4.38,3.72-1.54.55,1.83-3.92.96,2.62,3.32-1.5,1.13-2.19-3.72-2.17,3.63-1.5-1.09,2.68-3.35Z"/>
    </g>
  </g>
</svg>