<?xml version="1.0" encoding="UTF-8"?>
<svg id="Layer_2" data-name="Layer 2" xmlns="http://www.w3.org/2000/svg" viewBox="0 0 60.92 60.92">
  <defs>
    <style>
      .cls-1 {
        fill: #fff;
        stroke-width: 0px;
      }
    </style>
  </defs>
  <g id="Layer_2-2" data-name="Layer 2">
    <path class="cls-1" d="M6.71,6.71C-1.81,15.23-2.66,47.31,6.71,54.88s39.66,8.52,48.17,0,7.57-38.81,0-48.17S15.23-1.81,6.71,6.71ZM30.8,50.12c-8.93,0-16.2-7.27-16.2-16.2s7.27-16.2,16.2-16.2,16.2,7.27,16.2,16.2-7.27,16.2-16.2,16.2ZM45.91,18.51c-1.59,0-2.87-1.29-2.87-2.87s1.29-2.87,2.87-2.87,2.87,1.29,2.87,2.87-1.29,2.87-2.87,2.87Z"/>
  </g>
</svg>