<?xml version="1.0" encoding="UTF-8"?>
<svg id="Layer_2" data-name="Layer 2" xmlns="http://www.w3.org/2000/svg" viewBox="0 0 203.24 127.61">
  <defs>
    <style>
      .cls-1 {
        fill: #fff;
        stroke-width: 0px;
      }
    </style>
  </defs>
  <g id="Layer_2-2" data-name="Layer 2">
    <g>
      <path class="cls-1" d="M86.98,120.17c-2.67-39.24-5.04-79.08-7.34-117.63v-.16s-5,.3-5,.3v.16c1.48,24.65,2.98,49.83,4.57,75.04-1.9-9.26-4.42-18.38-6.9-27.3-4.26-15.31-8.66-31.14-9.61-47.09-.02-.38-.04-.76-.06-1.14l-4.99.27c.02.38.04.76.06,1.14.62,12.68-1.14,25.71-5.11,37.76-.55,1.66-1.43,3.91-2.85,4.34-1.05.32-2.54-.5-3.33-1.83-.96-1.62-1.17-3.78-1.32-6.03-.79-12.34-.23-24.79,1.68-37l-4.9-1c-3.39,13.5-6.56,27.53-9.63,41.09-.77,3.42-1.53,6.75-2.27,10.02L23.46.61l-4.96.64.18,1.42c-.63-.49-1.3-.94-2-1.3C14.07.03,11.23-.2,8.7.72,4.75,2.16,1.93,6.07.75,11.74c-1.76,8.48-.1,17,1.76,24.21,2.57,9.95,6.14,19.74,9.6,29.2,4.99,13.65,10.15,27.77,12.17,42.24.68,4.9.39,13.58-5.05,15.06-1.38.38-2.94.09-4.38-.79-1.77-1.08-3.13-2.94-3.54-4.85-.77-3.6.9-7.92,4.24-11.01l-3.39-3.68c-4.69,4.33-6.89,10.35-5.74,15.73.7,3.25,2.87,6.27,5.82,8.07,1.82,1.11,3.8,1.68,5.74,1.68.86,0,1.72-.11,2.55-.34,8.23-2.23,9.83-12.48,8.7-20.57-2.09-15-7.34-29.37-12.42-43.26-3.42-9.35-6.95-19.03-9.46-28.74-1.72-6.66-3.26-14.47-1.71-21.94.38-1.82,1.6-6.18,4.76-7.33,1.55-.56,3.03-.09,4,.41,2.03,1.04,3.74,3.15,4.36,5.38,1.24,4.45-.18,9.46-1.44,13.89l4.41,1.25,12.77,98.89,4.96-.64-4.57-35.41,11.49,38.09,4.79-1.44-18.87-62.54c1.58-6.77,3.16-13.74,4.82-21.1.87-3.87,1.76-7.78,2.65-11.7.05,2.61.16,5.22.33,7.83.18,2.77.48,5.69,2.01,8.26,1.71,2.87,5.38,5.19,9.08,4.06,3.6-1.09,5.17-4.61,6.14-7.56,1.66-5.04,2.95-10.24,3.86-15.52,1.81,8.24,4.06,16.36,6.28,24.34,3.74,13.44,7.6,27.33,9.13,41.27.71,6.49,1.13,14.85-2.02,22.01-1.08,2.46-3.2,5.26-5.61,5.07-3.06-.24-4.66-5.09-5.34-7.96-1.51-6.32-2.57-13.4.95-18.04l-3.98-3.02c-4.78,6.3-3.61,14.77-1.83,22.22,2.21,9.28,6.56,11.54,9.81,11.79,5.03.41,8.76-3.89,10.58-8.04.99-2.25,1.67-4.56,2.13-6.89.29,4.4.59,8.8.89,13.19l.21,2.99,20.31-5.18-1.24-4.85-14.49,3.7Z"/>
      <path class="cls-1" d="M203.24,120.31l-1.47-4.78c-4.81,1.48-9.49,3.01-13.97,4.58-2.82-17.06-5.57-34.71-8.23-52.82l10.32-3.16-1.46-4.78-9.59,2.93c-2.45-16.84-4.82-34.07-7.11-51.62l15.91-4.69-1.41-4.79-15.65,4.61c.07-1.28.16-2.56.22-3.83l-4.99-.27c-.63,11.8-1.53,23.81-2.4,35.43-1.06,14.17-2.14,28.57-2.77,43.05-3.77-35.23-8.18-78.26-8.25-78.94l-4.99.16c-.03.82-3.05,82.55-7.41,122.05l4.97.55c2.56-23.2,4.66-60.83,5.96-88.25,3.37,32.4,8.17,77.76,9.63,88.24l4.97-.47c-1.43-28.62.75-57.8,2.86-86.02.22-2.95.44-5.93.66-8.93,4.58,33.88,9.47,66.48,14.6,97.14l19.58-5.4Z"/>
    </g>
    <g id="Layer_1-2" data-name="Layer 1-2">
      <g>
        <path class="cls-1" d="M151.72,40.08c-8.4,0-18.72-1.15-29.41-3.44-16.04-3.44-46.03-12.8-43.54-23.87.95-4.59,6.68-7.07,17.19-7.45,8.98-.38,20.43.95,32.47,3.44,16.23,3.44,46.03,12.8,43.73,23.87-.95,4.58-6.68,7.07-17.19,7.45h-3.25,0ZM99.01,11.05h-2.86c-9.36.38-11.65,2.48-11.84,2.86-.57,2.48,12.6,11.46,39.34,17.19,11.46,2.48,22.54,3.63,30.94,3.25,9.36-.38,11.65-2.29,11.84-2.86.57-2.48-12.6-11.46-39.34-17.19-10.12-2.1-20.05-3.25-28.07-3.25h0Z"/>
        <path class="cls-1" d="M145.99,56.88c-22.15,0-45.83-6.11-60.16-16.61l3.44-4.58c17.76,12.99,51.18,18.91,76.2,13.56l1.15,5.54c-6.49,1.34-13.37,2.1-20.63,2.1h0Z"/>
        <path class="cls-1" d="M133.77,71.78c-19.86,0-33.8-4.39-48.89-15.09l3.25-4.77c16.61,11.65,31.32,15.28,56.15,13.56l.38,5.73c-3.63.38-7.26.57-10.89.57h0Z"/>
        <path class="cls-1" d="M117.35,84.58c-15.85,0-24.06-5.54-31.32-11.27l3.63-4.39c7.26,5.73,14.9,10.69,31.32,9.93l.38,5.73h-4.01,0Z"/>
        <path class="cls-1" d="M115.63,99.09c-7.45,0-13.18-.95-18.72-6.11l3.82-4.2c4.2,3.82,8.4,4.58,14.9,4.58v5.73h0Z"/>
        <path class="cls-1" d="M112.76,111.12c-2.48,0-4.77-.76-6.3-2.1l3.82-4.39c.57.57,1.34.76,2.48.76v5.73h0Z"/>
      </g>
    </g>
  </g>
</svg>