<?xml version="1.0" encoding="UTF-8"?>
<svg id="Layer_2" data-name="Layer 2" xmlns="http://www.w3.org/2000/svg" viewBox="0 0 204.25 126.75">
  <defs>
    <style>
      .cls-1 {
        fill: #fff;
        stroke-width: 0px;
      }
    </style>
  </defs>
  <g id="Layer_2-2" data-name="Layer 2">
    <g>
      <path class="cls-1" d="M141.23,126.75h5.01c1.61-23.35,2.24-60.27,2.49-87.29,4.55,31.77,10.95,76.02,12.92,87.29h3.93l1.12-.15c-2.53-28.54-1.47-57.79-.45-86.07.11-2.96.22-5.95.32-8.95,5.79,33.18,11.84,65.11,18.04,95.16h4.52l15.11-4.8-1.65-4.72c-4.75,1.66-9.37,3.38-13.79,5.11-3.47-16.94-6.9-34.47-10.25-52.47l10.19-3.55-1.65-4.72-9.47,3.3c-3.09-16.73-6.13-33.86-9.08-51.31l15.72-5.3-1.6-4.74-15.46,5.21c.02-1.28.06-2.56.08-3.83l-5-.08c-.18,11.82-.62,23.85-1.04,35.49-.51,14.2-1.04,28.63-1.11,43.12-5.12-35.06-11.18-77.89-11.27-78.56l-4.98.36c0,.82.12,81.57-2.66,121.48Z"/>
      <path class="cls-1" d="M10.94,64.97c4.64,13.77,9.43,28.02,11.08,42.54.56,4.91.04,13.59-5.44,14.92-1.39.34-2.94.02-4.36-.9-1.75-1.13-3.05-3.02-3.41-4.94-.68-3.62,1.1-7.9,4.52-10.9l-3.29-3.76c-4.8,4.21-7.16,10.17-6.15,15.58.61,3.27,2.71,6.34,5.61,8.22.65.42,1.32.74,2,1.02h7.87c6.9-2.88,8.46-12.24,7.61-19.8-1.71-15.05-6.59-29.55-11.31-43.57-3.18-9.44-6.46-19.2-8.71-28.97-1.55-6.7-2.89-14.55-1.14-21.98.43-1.81,1.76-6.14,4.95-7.21,1.57-.52,3.03-.01,3.99.51,2,1.09,3.66,3.25,4.22,5.49,1.13,4.48-.42,9.46-1.79,13.85l4.38,1.37,10.22,99.19,4.97-.51-3.66-35.52,10.18,37.16h4.77l.39-.11-17.26-63.01c1.76-6.72,3.51-13.65,5.36-20.97.97-3.85,1.96-7.73,2.95-11.63-.02,2.61.02,5.22.13,7.83.11,2.78.33,5.7,1.79,8.31,1.63,2.92,5.24,5.32,8.98,4.3,3.63-1,5.29-4.48,6.34-7.4,1.79-4.99,3.21-10.16,4.26-15.41,1.59,8.28,3.64,16.46,5.66,24.5,3.39,13.53,6.89,27.52,8.07,41.49.55,6.51.75,14.88-2.58,21.95-1.14,2.43-3.33,5.17-5.74,4.92-3.05-.32-4.53-5.21-5.14-8.1-1.34-6.35-2.22-13.46,1.41-18.01l-3.9-3.12c-4.94,6.17-3.99,14.67-2.4,22.17,1.97,9.34,6.26,11.7,9.51,12.04,5.02.54,8.85-3.67,10.78-7.76,1.04-2.22,1.78-4.52,2.3-6.83.18,4.41.36,8.81.55,13.21l.07,1.65h5.98l14.51-3.31-1.11-4.88-14.58,3.32c-1.66-39.3-3.01-79.18-4.32-117.78v-.16s-5,.17-5,.17v.16c.84,24.68,1.69,49.89,2.63,75.14-1.66-9.3-3.95-18.49-6.2-27.47-3.86-15.42-7.85-31.35-8.4-47.32,0-.38-.02-.76-.03-1.14l-5,.15c0,.38.02.76.03,1.15.3,12.7-1.8,25.68-6.08,37.62-.59,1.64-1.53,3.87-2.96,4.26-1.05.3-2.53-.57-3.28-1.92-.92-1.64-1.07-3.81-1.16-6.06-.48-12.35.41-24.78,2.63-36.95l-4.87-1.12c-3.74,13.41-7.27,27.35-10.68,40.83-.86,3.4-1.7,6.71-2.53,9.96L23.95.74l-4.97.51.15,1.43c-.62-.51-1.27-.97-1.96-1.35C14.58-.07,11.75-.38,9.19.48,5.2,1.81,2.28,5.65.96,11.28c-1.98,8.43-.54,16.99,1.14,24.25,2.31,10.01,5.63,19.89,8.85,29.44Z"/>
    </g>
  </g>
</svg>