<?xml version="1.0" encoding="UTF-8"?>
<svg id="Layer_2" data-name="Layer 2" xmlns="http://www.w3.org/2000/svg" viewBox="0 0 588.5 665.21">
  <defs>
    <style>
      .cls-1 {
        fill: #fff;
        stroke-width: 0px;
      }
    </style>
  </defs>
  <g id="Layer_1-2" data-name="Layer 1">
    <g>
      <path class="cls-1" d="M459.31,218.81c-52.8,0-117.6-7.2-184.8-21.6C173.71,175.61-14.69,116.81.91,47.21,6.91,18.4,42.91,2.81,108.91.4c56.4-2.4,128.4,6,204,21.6,102,21.6,289.2,80.4,274.8,150-6,28.8-42,44.4-108,46.8h-20.4ZM128.11,36.41h-18c-58.8,2.4-73.2,15.6-74.4,18-3.6,15.6,79.2,72,247.2,108,72,15.6,141.6,22.8,194.4,20.4,58.8-2.4,73.2-14.4,74.4-18,3.6-15.6-79.2-72-247.2-108-63.6-13.2-126-20.4-176.4-20.4h0Z"/>
      <path class="cls-1" d="M423.31,324.41c-139.2,0-288-38.4-378-104.4l21.6-28.8c111.6,81.6,321.6,118.8,478.8,85.2l7.2,34.8c-40.8,8.4-84,13.2-129.6,13.2h0Z"/>
      <path class="cls-1" d="M346.51,418.01c-124.8,0-212.4-27.6-307.2-94.8l20.4-30c104.4,73.2,196.8,96,352.8,85.2l2.4,36c-22.8,2.4-45.6,3.6-68.4,3.6h0Z"/>
      <path class="cls-1" d="M243.31,498.41c-99.6,0-151.2-34.8-196.8-70.8l22.8-27.6c45.6,36,93.6,67.2,196.8,62.4l2.4,36c-9.6,0-18,0-25.2,0h0Z"/>
      <path class="cls-1" d="M232.51,589.61c-46.8,0-82.8-6-117.6-38.4l24-26.4c26.4,24,52.8,28.8,93.6,28.8v35.99Z"/>
      <path class="cls-1" d="M214.51,665.21c-15.6,0-30-4.8-39.6-13.2l24-27.6c3.6,3.6,8.4,4.8,15.6,4.8v36Z"/>
    </g>
  </g>
</svg>